PathFileType	4	(X/Y/Z)	3_coords_data.trc
DataRate	CameraRate	NumFrames	NumMarkers	Units	OrigDataRate	OrigDataStartFrame	OrigNumFrames
30.0	30.0	5	21	m	30.0	33	65
Frame#	Time	THUMB_TIP	THUMB_IP	THUMB_MCP	THUMB_CMC	INDEX_TIP	INDEX_DIP	INDEX_PIP	INDEX_MCP	MIDDLE_TIP	MIDDLE_DIP	MIDDLE_PIP	MIDDLE_MCP	RING_TIP	RING_DIP	RING_PIP	RING_MCP	PINKY_TIP	PINKY_DIP	PINKY_PIP	PINKY_MCP	WRIST
X1	Y1	Z1	X2	Y2	Z2	X3	Y3	Z3	X4	Y4	Z4	X5	Y5	Z5	X6	Y6	Z6	X7	Y7	Z7	X8	Y8	Z8	X9	Y9	Z9	X10	Y10	Z10	X11	Y11	Z11	X12	Y12	Z12	X13	Y13	Z13	X14	Y14	Z14	X15	Y15	Z15	X16	Y16	Z16	X17	Y17	Z17	X18	Y18	Z18	X19	Y19	Z19	X20	Y20	Z20	X21	Y21	Z21
32	1.0666666666666667	-0.05543560028076172	-0.01509060001373291	0.95581201171875	-0.05586959838867187	-0.038305599212646486	0.9640910034179687	-0.07339800262451172	-0.04100949859619141	0.9894929809570312	-0.08880049896240234	-0.020329999923706054	1.011739990234375	-0.08777980041503906	-0.03667839813232422	0.9780059814453125	-0.07150800323486328	-0.033424301147460936	0.9665150146484375	-0.07436080169677735	-0.034169898986816404	0.9422769775390625	-0.11026100158691406	-0.04120370101928711	0.9574539794921875	-0.07753569793701172	-0.018831100463867188	0.9844030151367188	-0.0718447036743164	-0.01523270034790039	0.9798289794921875	-0.07157510375976563	-0.010743499755859375	0.9527540283203125	-0.11250499725341796	-0.01937220001220703	0.953135009765625	-0.08437200164794922	-0.005910550117492676	0.994208984375	-0.07728679656982422	-0.001600299954414367	0.99131298828125	-0.07279930114746094	0.00699659013748169	0.9685989990234375	-0.11251399993896484	0.000955645978450775	0.9595020141601562	-0.09225140380859374	0.007084139823913574	1.0056199951171876	-0.0795707015991211	0.010550600051879883	1.000219970703125	-0.07709889984130859	0.0191870002746582	0.98360400390625	-0.10661699676513672	0.019317600250244142	0.9700980224609375	-0.1169520034790039	-0.004358310222625733	1.03322998046875
33	1.1	-0.05530500030517578	-0.01538070011138916	0.9560330200195313	-0.05589530181884766	-0.038509899139404294	0.9644089965820313	-0.07333429718017578	-0.04124160003662109	0.989635986328125	-0.08876799774169922	-0.020406999588012696	1.011760009765625	-0.08752960205078125	-0.036412200927734374	0.9796370239257812	-0.07142539978027344	-0.0337052001953125	0.9666220092773438	-0.0742479019165039	-0.03439849853515625	0.9425150146484375	-0.1101780014038086	-0.041365001678466795	0.957531005859375	-0.07720909881591796	-0.01919350051879883	0.9843980102539063	-0.07159490203857422	-0.015512499809265137	0.9800009765625	-0.07153820037841797	-0.010985300064086915	0.95310400390625	-0.11244300079345704	-0.019489099502563476	0.9533380126953125	-0.08428939819335937	-0.006089469909667969	0.994260009765625	-0.07718990325927734	-0.0017836799621582032	0.9914650268554688	-0.07279830169677734	0.006859620094299316	0.968614013671875	-0.11243099975585938	0.0008005830049514771	0.9596909790039062	-0.09222229766845703	0.0069782500267028804	1.0053900146484376	-0.07942299652099609	0.010317500114440919	1.0003699951171876	-0.07699120330810547	0.01901490020751953	0.9838629760742188	-0.10663500213623046	0.019143699645996094	0.9703250122070313	-0.11730400085449219	-0.004302760124206543	1.0334599609375
34	1.1333333333333333	-0.05512900161743164	-0.015557700157165528	0.9561519775390624	-0.05579199981689453	-0.03870320129394531	0.9645700073242187	-0.07326490020751954	-0.04140579986572265	0.9898829956054688	-0.08857230377197266	-0.0206210994720459	1.0121199951171875	-0.08767690277099609	-0.037004398345947265	0.9792659912109375	-0.07136380004882813	-0.03371630096435547	0.9669929809570312	-0.0740071029663086	-0.03458940124511719	0.9427520141601563	-0.11008699798583985	-0.04149250030517578	0.95777099609375	-0.0771875991821289	-0.019476900100708006	0.9849099731445312	-0.07146980285644532	-0.015645700454711912	0.9800189819335937	-0.07142440032958984	-0.011146900177001953	0.9531890258789063	-0.11233499908447266	-0.019587799072265624	0.9534500122070313	-0.08425479888916015	-0.00612279987335205	0.9942890014648438	-0.07706590270996094	-0.0017430200576782223	0.9914199829101562	-0.07267690277099609	0.006782400131225586	0.9689039916992187	-0.11230000305175782	0.0006989750266075131	0.959833984375	-0.09265799713134766	0.006919069766998291	1.0061799926757813	-0.079410400390625	0.010384900093078613	1.0006599731445311	-0.07689479827880859	0.018935699462890625	0.9839190063476563	-0.10650399780273437	0.019040199279785158	0.9704429931640625	-0.11682599639892578	-0.004453010082244873	1.0338499755859376
35	1.1666666666666667	-0.05484669876098633	-0.015763400077819824	0.9562849731445312	-0.055645000457763674	-0.03891419982910156	0.9648779907226562	-0.07310919952392578	-0.04139590072631836	0.9902039794921875	-0.08838020324707031	-0.020604299545288085	1.0123800048828124	-0.08694899749755859	-0.03676010131835938	0.980135009765625	-0.07102320098876953	-0.03394960021972656	0.966844970703125	-0.07379709625244141	-0.034640201568603514	0.9429359741210938	-0.10990299987792969	-0.04150170135498047	0.9579920043945312	-0.07713870239257813	-0.019409500122070312	0.9852109985351563	-0.07142240142822266	-0.015615599632263184	0.980447998046875	-0.07127290344238281	-0.011212400436401367	0.9534739990234375	-0.11214700317382813	-0.01966510009765625	0.9536799926757813	-0.08390869903564453	-0.006306580066680908	0.9945	-0.07687169647216797	-0.00193827998638153	0.9918150024414063	-0.07257700347900391	0.006734720230102539	0.9691890258789062	-0.11215799713134765	0.0006427119970321651	0.9599329833984375	-0.09248259735107422	0.006758120059967041	1.006530029296875	-0.0791781005859375	0.010147299766540527	1.0006900024414063	-0.07659190368652344	0.01885449981689453	0.984197998046875	-0.10634400177001953	0.019002500534057616	0.9707360229492188	-0.11663400268554687	-0.0044633297920227055	1.03397998046875
36	1.2	-0.05465650177001953	-0.015909299850463868	0.95664599609375	-0.05556209945678711	-0.03902870178222656	0.9652069702148437	-0.07294920349121094	-0.04158919906616211	0.9903839721679687	-0.08826129913330077	-0.02067770004272461	1.012489990234375	-0.08705069732666015	-0.03700899887084961	0.9796339721679688	-0.07091790008544922	-0.03419729995727539	0.9673660278320313	-0.07368509674072266	-0.0347504997253418	0.9431840209960938	-0.10972899627685546	-0.04160960006713867	0.9582139892578125	-0.07674819946289063	-0.019700000762939453	0.9852520141601563	-0.07108039855957031	-0.01583419990539551	0.98047998046875	-0.07109660339355468	-0.01132759952545166	0.9533900146484375	-0.11206099700927734	-0.01973950004577637	0.9539609985351563	-0.08311260223388672	-0.006379869937896728	0.9942869873046875	-0.07665450286865234	-0.0019407399892807002	0.9917540283203125	-0.07242769622802735	0.006570320129394531	0.96918701171875	-0.11197699737548829	0.0005659379959106441	0.9602830200195313	-0.09195690155029297	0.0068352499008178715	1.0063499755859375	-0.07884320068359375	0.010104100227355957	1.0008300170898436	-0.07650319671630859	0.018813100814819336	0.9844130249023437	-0.10613700103759766	0.018967100143432617	0.970875	-0.11644200134277344	-0.004537970066070557	1.03397998046875
